<svg xmlns="http://www.w3.org/2000/svg" viewBox="0 0 338.96823 117.27806">
  <defs>
    <style>
      .aa865598-fc19-4368-b0a0-534a7f430d9e {
        fill: #156333;
      }

      .fd539cfa-4fb4-4719-9925-b788534cdd96 {
        fill: #156233;
      }

      .bb451425-d598-4e55-afd4-96e11d3b54b8 {
        fill: #176334;
      }

      .f00721d5-42eb-4783-be12-6cad8be59024 {
        fill: #176435;
      }

      .bcde9ce4-c860-4453-9c08-a5cb351a0dc2 {
        fill: #176434;
      }

      .bd02ec42-9303-468c-891d-7b611029e025 {
        fill: #186435;
      }

      .b381fb53-aa76-4241-96f3-1b6c43315158 {
        fill: #196536;
      }

      .bc30447c-d403-479d-b025-7317e934952e {
        fill: #166333;
      }
    </style>
  </defs>
  <g id="b1611fb6-2549-4695-8031-ebaf816a34af" data-name="Layer 2">
    <g id="f1ecc7f8-fbf7-4bec-8620-28e89a749c6d" data-name="Layer 1">
      <path class="aa865598-fc19-4368-b0a0-534a7f430d9e" d="M0,61.23027c.31817-1.6909.59257-3.39147.96454-5.07049q.88973-4.01615,1.91115-8.00215c.08684-.33741.58885-.83365.87158-.81639,6.16524.37646,12.32666.81533,18.32464,1.23083-.47169,3.69682-.96087,7.31709-1.38808,10.94463a9.22233,9.22233,0,0,1-4.47456,6.99284A14.92179,14.92179,0,0,1,5.261,68.88513C2.72875,68.42562.80114,67.19036.24712,64.44861.22163,64.32245.08491,64.2187,0,64.10452Z"/>
      <path class="fd539cfa-4fb4-4719-9925-b788534cdd96" d="M46.05145,117.27806c-.50133-.17886-1.00437-.35308-1.50372-.53728a15.01883,15.01883,0,0,1-9.42414-9.34782,8.90722,8.90722,0,0,1,.26023-6.20632c1.23733-3.35251,2.47459-6.705,3.75257-10.16779l17.4307,7.484a66.67729,66.67729,0,0,1-4.33388,14.9375,6.2164,6.2164,0,0,1-4.74265,3.83774Z"/>
      <path class="fd539cfa-4fb4-4719-9925-b788534cdd96" d="M57.30771,93.09133c-5.75853-2.47341-11.43219-4.9024-17.09151-7.36424a1.17966,1.17966,0,0,1-.65064-.81048c.04762-4.62989-1.4733-8.929-2.73845-13.28348C34.43681,63.406,35.79492,55.54853,39.319,47.96a13.17465,13.17465,0,0,1,2.71947-3.73992c2.74014-2.68684,6.18022-3.12443,9.943-1.2204a22.143,22.143,0,0,1,11.92683,14.23A32.32509,32.32509,0,0,1,62.25882,79.0819c-1.43251,3.31574-3.31912,6.4321-4.08118,10.01927C57.90528,90.3832,57.61967,91.66243,57.30771,93.09133Z"/>
      <path class="fd539cfa-4fb4-4719-9925-b788534cdd96" d="M5.12292,42.09263c.58012-2.84156,1.27168-5.50808,1.6307-8.21853.281-2.12148.00515-4.31239.22675-6.44656.99047-9.539,4.43543-17.88529,12.56723-23.55823A20.69969,20.69969,0,0,1,33.83141.12044,8.22437,8.22437,0,0,1,41.5072,7.681c.68065,4.92658-.55686,9.56852-2.04932,14.17692A28.72016,28.72016,0,0,1,32.144,33.3434c-2.9122,2.91314-5.73528,5.89-7.6418,9.60435a1.03391,1.03391,0,0,1-.8132.43381C17.48265,42.97114,11.27853,42.527,5.12292,42.09263Z"/>
      <path class="bb451425-d598-4e55-afd4-96e11d3b54b8" d="M131.42841,42.74527c-5.56782,0-11.08106.00052-16.5943-.00375a1.70355,1.70355,0,0,1-.37613-.09809V40.77471c.67251-.06339,1.34368-.10091,2.007-.19419,1.73289-.24369,2.48341-1.05336,2.49324-2.77507.02143-3.75111.00741-7.50242.00289-11.25365a4.98044,4.98044,0,0,0-.07636-.60555h-13.349l0,4.76931q0,3.11272.00013,6.22545c.00072,2.39118.47963,2.99442,2.81726,3.52538.53939.12252,1.08546.21569,1.67945.33237v1.86993H93.0144V40.80093c.56389-.06557,1.14759-.12251,1.728-.2029,2.19177-.30354,2.82857-1.02046,2.834-3.21481.00745-3.03289.00188-6.06582.00188-9.09873q0-7.12334-.00007-14.24669c-.00012-2.5629-.47352-3.16973-2.992-3.8203-.49989-.12913-1.00487-.23859-1.57754-.37364V7.92106h16.991V9.806c-.84032.178-1.725.3709-2.61219.552a2.13929,2.13929,0,0,0-1.83832,2.30452c-.026,3.50806-.00923,7.01644-.00923,10.60335h13.42519l0-7.14855V14.561c0-3.19729-.41275-3.7252-3.52634-4.5-.3042-.0757-.6126-.13461-.971-.21261V7.912H131.472V9.82737c-.68691.12254-1.38528.22794-2.07507.37384-1.95774.41409-2.47129,1.0396-2.4725,3.03045q-.00684,11.25369-.00183,22.50738c0,.55869-.00466,1.11743.00089,1.67607a2.60029,2.60029,0,0,0,2.32366,2.96754c.27041.06857.54328.1287.817.18277C131.71342,40.89123,131.71361,40.89026,131.42841,42.74527Z"/>
      <path class="f00721d5-42eb-4783-be12-6cad8be59024" d="M208.39483,100.74293c0,2.32714-.02313,4.51969.00748,6.71151a2.54839,2.54839,0,0,0,2.32458,2.85088c.81014.18723,1.63416.3146,2.46695.4719v1.776H197.1862v-1.82067c.5407-.07651,1.05348-.12857,1.558-.22414,1.74024-.32967,2.22682-.88084,2.24278-2.66853.02493-2.79415.007-5.58869.007-8.38306q.00009-7.5448,0-15.08962c0-3.46562-.40162-3.9933-3.78146-4.90981V77.6982c1.89108-.12666,3.78633-.2577,5.68219-.3792,1.3546-.08682,2.71565-.10949,4.06327-.25694,1.06882-.11694,1.61316.1456,1.447,1.32859a14.13422,14.13422,0,0,0-.01145,1.73936c.48226-.425.76675-.67441,1.04983-.92538,4.68007-4.14913,11.06352-3.1942,13.96765,2.33026a15.55828,15.55828,0,0,1,.30734,14.82375A10.62881,10.62881,0,0,1,208.39483,100.74293Zm-.00173-11.3102c0,2.11337-.02978,4.22728.00783,6.34a4.27575,4.27575,0,0,0,4.23378,4.28867,3.72347,3.72347,0,0,0,3.3708-2.82056,26.515,26.515,0,0,0,1.187-5.68516,16.70109,16.70109,0,0,0-.866-7.7702,4.60383,4.60383,0,0,0-3.72824-3.31108,3.48577,3.48577,0,0,0-4.20544,3.57521Q208.39281,86.74116,208.3931,89.43273Z"/>
      <path class="f00721d5-42eb-4783-be12-6cad8be59024" d="M121.31454,66.92856V76.0911c-1.03967.28238-1.89815.26408-2.21078-1.07169a6.5113,6.5113,0,0,0-.58016-1.17552c-1.57007-3.33708-4.03512-5.09375-7.883-4.69582a49.70515,49.70515,0,0,1-5.00617.02789V82.63605c6.26531.50136,7.52052-.36221,8.86157-5.90947h1.57079V91.36477h-1.56764c-1.57624-5.5-1.66461-6.65531-8.96315-6.21648v6.66726c0,1.51682-.005,3.03366.00131,4.55045.00759,1.81437.54386,2.51225,2.30024,2.96479.69319.17861,1.39848.31036,2.154.47565v1.82994H92.98768V99.79593c.54013-.08225,1.109-.18492,1.68206-.25329,2.23117-.26625,2.90608-1.01271,2.907-3.27108q.00464-11.67553.001-23.35108c-.00016-2.44084-.46947-3.0564-2.83872-3.69311-.57148-.15357-1.153-.26972-1.75466-.40878v-1.89Z"/>
      <path class="f00721d5-42eb-4783-be12-6cad8be59024" d="M298.28732,99.96441V101.645H284.954V99.897c.34666-.04974.68823-.0929,1.02774-.14857a1.66664,1.66664,0,0,0,1.62881-1.73523c-.00167-4.62655.03361-9.25433-.06942-13.8789a3.10255,3.10255,0,0,0-2.10581-3.18862c-1.98744-.58363-3.58088.31645-4.95066,1.6726a3.17513,3.17513,0,0,0-.95478,2.4621c.06459,3.7111.01139,7.42406.03057,11.13619.01359,2.63175.31106,2.99508,2.87271,3.68822.02322.27734.05742.58268.07177.88894.0125.26763.0026.53631.0026.86021h-13.5622V99.86548c.28717-.03225.55653-.05579.82385-.0936,1.94258-.27469,2.452-.84316,2.45713-2.83212.01112-4.271.00348-8.54209.00342-12.81313,0-3.05767-.60677-3.863-3.56623-4.6581V77.69c1.43339-.08823,2.88688-.17695,4.34022-.26733,1.87243-.11644,3.7463-.21486,5.61639-.36156.68614-.05382.95425.19861.93932.86672-.02012.89984-.005,1.80046-.005,3.02851.77618-.72544,1.32185-1.21595,1.84588-1.72855a8.95165,8.95165,0,0,1,8.40551-2.34526c3.1737.60742,5.19337,3.47737,5.24186,7.35724.04737,3.79146.01089,7.584.011,11.376C295.05887,98.87462,295.19739,99.06367,298.28732,99.96441Z"/>
      <path class="bcde9ce4-c860-4453-9c08-a5cb351a0dc2" d="M192.3194,30.74362c.0006-8.90165,6.38534-14.24367,15.21785-12.932,5.76451.856,9.42662,4.34877,10.42683,9.94452,1.0791,6.03713-1.33622,11.6851-6.18,14.23571-5.07882,2.67437-14.11558,2.45316-17.922-4.65714A12.67361,12.67361,0,0,1,192.3194,30.74362Zm17.95041.01884-.264-.05073a27.26887,27.26887,0,0,0-.20207-3.5698,20.76971,20.76971,0,0,0-1.362-5.37426c-1.40714-2.88041-4.85651-2.83128-6.47889-.0504a7.98589,7.98589,0,0,0-.93907,2.429,34.27291,34.27291,0,0,0-.15455,11.99526,12.34557,12.34557,0,0,0,1.49085,3.8454,3.0845,3.0845,0,0,0,3.18988,1.45521,3.60645,3.60645,0,0,0,3.33318-2.97518C209.49492,35.93481,209.82208,33.33411,210.26981,30.76246Z"/>
      <path class="bcde9ce4-c860-4453-9c08-a5cb351a0dc2" d="M163.39755,102.46906c-7.60624-.00353-12.7642-5.24464-12.73334-12.93861.03144-7.83809,5.18476-12.959,13.01531-12.93337,7.861.0257,12.90144,5.05793,12.89236,12.87125C176.56266,97.40929,171.43155,102.4728,163.39755,102.46906Zm-4.7037-12.68386c.29163,2.16438.44646,4.5158.957,6.78747.59018,2.62587,2.10278,3.91112,4.027,3.8977,1.90164-.01325,3.32284-1.37632,3.97681-3.9783a31.32579,31.32579,0,0,0,.32084-12.33055,10.55491,10.55491,0,0,0-1.17523-3.58773,3.55441,3.55441,0,0,0-6.26807-.12488,6.52826,6.52826,0,0,0-1.00041,2.39925C159.17433,85.0784,158.978,87.3344,158.69385,89.7852Z"/>
      <path class="bcde9ce4-c860-4453-9c08-a5cb351a0dc2" d="M147.62815,89.23093c-.01414,8.5139-5.49718,12.96711-12.13785,13.22789-8.11921.31884-13.42584-4.41573-13.77273-12.21651-.35482-7.97912,4.52511-13.30188,12.50938-13.64454C142.03471,76.2627,147.31178,81.23732,147.62815,89.23093Zm-17.96692.29354c.35034,2.45445.53989,4.88014,1.07425,7.22755.57091,2.50792,2.02088,3.70329,3.91038,3.71836,1.8443.01472,3.283-1.27342,3.95733-3.69875a28.36737,28.36737,0,0,0,.58229-10.90351,16.19927,16.19927,0,0,0-1.30914-5.14132c-1.32539-2.74962-4.72683-2.78633-6.37453-.22191a4.86068,4.86068,0,0,0-.775,1.72843C130.32122,84.65531,130.00836,87.09278,129.66123,89.52447Z"/>
      <path class="f00721d5-42eb-4783-be12-6cad8be59024" d="M253.77646,48.66566c.72087-1.29032,1.72337-3.02522,2.64708-4.801a1.51874,1.51874,0,0,0-.14288-1.1037q-4.40739-9.86622-8.84759-19.71783a4.792,4.792,0,0,0-3.49731-2.84945v-1.757h13.54565v1.68335c-3.088.78363-3.09461.78664-1.77291,3.70268,1.53927,3.396,3.09172,6.7861,4.76628,10.45926.93883-2.38309,1.782-4.50487,2.61011-6.63249q.75746-1.946,1.47682-3.90683c.7284-1.981.41313-2.60337-1.62646-3.24921-.37445-.11857-.75568-.2157-1.17144-.33337V18.4252H270.919v1.78985c-2.39081.40184-3.25673,2.35122-4.09521,4.3879-2.89333,7.02769-5.72473,14.08433-8.81407,21.026a26.15412,26.15412,0,0,1-4.12368,6.09245,5.33065,5.33065,0,0,1-5.99836,1.60991,4.226,4.226,0,0,1-2.95829-4.06552,3.4098,3.4098,0,0,1,1.99836-3.39053,3.58907,3.58907,0,0,1,3.91767.56516C251.7576,47.15423,252.68992,47.84239,253.77646,48.66566Z"/>
      <path class="bd02ec42-9303-468c-891d-7b611029e025" d="M167.892,19.03941l.538-1.32568h1.803v8.3694h-.95322a49.43312,49.43312,0,0,0-3.3068-4.50943,5.03152,5.03152,0,0,0-5.12662-1.55078A2.77286,2.77286,0,0,0,158.5519,22.321a2.83833,2.83833,0,0,0,1.44393,3.14787c1.2064.59915,2.51332.99333,3.76147,1.51261a28.64846,28.64846,0,0,1,4.675,2.05932,7.6864,7.6864,0,0,1,.49853,12.16545c-3.302,2.59429-7.116,2.81661-11.03925,1.89459a35.63938,35.63938,0,0,1-4.07211-1.47919l-.621,1.364h-1.89552c0-1.49872.02692-2.99684-.00757-4.49355-.03467-1.50509-.13045-3.00877-.198-4.4812,1.2074-.38788,1.77315-.02725,2.23308,1.08859a11.10312,11.10312,0,0,0,4.09375,5.18214,6.38511,6.38511,0,0,0,4.53624,1.0924,2.9671,2.9671,0,0,0,2.83-2.32622c.38226-1.71915-.06009-3.03268-1.53008-3.76682-1.31019-.65435-2.74126-1.06508-4.1114-1.60263a25.02127,25.02127,0,0,1-3.6325-1.50591,7.45252,7.45252,0,0,1-3.64782-8.072c.59881-3.27872,2.83636-5.06907,5.87554-5.94755C160.81458,17.26533,163.38729,17.53778,167.892,19.03941Z"/>
      <path class="bd02ec42-9303-468c-891d-7b611029e025" d="M318.68868,101.82629V92.91393h1.26537a40.069,40.069,0,0,0,2.696,4.35348c1.74618,2.17561,3.93556,3.61739,6.95452,3.02849a2.87417,2.87417,0,0,0,2.571-2.31351c.33946-1.6438-.04939-2.90007-1.39481-3.62045-1.1835-.63364-2.50948-.99634-3.75034-1.53008a24.61132,24.61132,0,0,1-4.95232-2.28481,7.42722,7.42722,0,0,1,1.2851-12.73851c3.509-1.6812,7.12759-1.3942,10.72471-.185.33858.11381.67148.24427,1.00851.36283.03068.0108.07211-.009.18314-.026.17213-1.258.94945-1.55871,2.32979-1.10094V85.074c-.81977.29273-1.3525.05867-1.80726-.98835-1.15308-2.65475-2.83274-4.85875-6.00913-5.19491-2.55416-.27031-4.10011,1.16359-3.86693,3.43926a2.68859,2.68859,0,0,0,1.697,2.2881c1.31034.57238,2.68237,1.00294,4.0217,1.5107A32.91233,32.91233,0,0,1,334.743,87.365a7.03738,7.03738,0,0,1,4.22334,6.90264,7.28549,7.28549,0,0,1-4.34765,6.98928c-4.26916,2.015-8.50949,1.65588-12.66853-.41688-.21189-.1056-.41784-.22314-.75987-.40663C320.97265,101.83569,320.19407,102.35642,318.68868,101.82629Z"/>
      <path class="b381fb53-aa76-4241-96f3-1b6c43315158" d="M191.01272,39.56874c.27815,2.04214.26513,2.01135-1.49786,2.75459a13.82775,13.82775,0,0,1-5.837,1.0753c-3.9381-.10893-6.31221-2.30566-6.40833-6.23646-.118-4.827-.05-9.65852-.06208-14.48809-.00109-.43366-.00016-.86731-.00016-1.44767h-3.98291V18.49733H177.239V11.14565h7.302v7.29117h6.20314v2.72637H184.6495V34.64656c0,.07984-.00013.15967.00005.23951.00994,4.26242.939,5.118,5.20386,4.78912C190.24174,39.64525,190.62921,39.60422,191.01272,39.56874Z"/>
      <path class="f00721d5-42eb-4783-be12-6cad8be59024" d="M227.21076,79.44013V77.699c2.03632-.13031,4.051-.261,6.06587-.38752,1.31349-.08245,2.62977-.13175,3.94014-.24826.74057-.06585,1.02649.21182,1.00344.93661-.02769.87166-.00654,1.74485-.00654,3.04306a12.63326,12.63326,0,0,1,2.04824-2.1618,14.63509,14.63509,0,0,1,4.11376-2.00524,3.96085,3.96085,0,0,1,4.60074,2.01243,5.62624,5.62624,0,0,1-.114,6.01635,3.4185,3.4185,0,0,1-3.81263,1.609c-2.29825-.4426-3.32914-1.97248-3.01278-4.4871.04389-.34885.13256-.69208.20169-1.044a4.08885,4.08885,0,0,0-4.02451,3.77q-.00046,5.68581-.00006,11.37161c0,2.71271.44461,3.225,3.15825,3.62706.3152.0467.63386.07031,1.03647.11387.027.29689.06428.60121.07952.90662.01362.27241.00287.546.00287.87767h-14.9365v-1.64272c.07774-.0592.13326-.13666.19879-.14631,2.85942-.4212,3.09434-.69161,3.09447-3.58124q.00028-6.04491.00006-12.08982C230.848,80.97808,230.38129,80.35436,227.21076,79.44013Z"/>
      <path class="bcde9ce4-c860-4453-9c08-a5cb351a0dc2" d="M309.58053,77.45283h6.22528V80.0864h-5.90833c-.13272.16628-.22372.22714-.22314.28709.04986,5.14348-.00237,10.29143.21248,15.42824.09735,2.32795,1.27043,3.09463,3.59932,2.98415.83576-.03965,1.66757-.16208,2.49909-.24652.46863,1.84507.41895,2.14939-1.37323,2.68432a22.5446,22.5446,0,0,1-5.57377,1.11408c-4.3093.14663-6.75656-2.37423-6.78115-6.71075-.029-5.106-.00683-10.21224-.00683-15.4212h-3.91547V77.46243h3.95289v-7.3186h7.29286Z"/>
      <path class="bcde9ce4-c860-4453-9c08-a5cb351a0dc2" d="M195.33688,98.53948c.22261,2.06663.21073,2.03852-1.47165,2.74728a12.713,12.713,0,0,1-6.77844,1.01342c-3.48714-.48515-5.42943-2.583-5.499-6.11565-.09576-4.86334-.04806-9.72948-.0615-14.59443-.0012-.43115-.00016-.8623-.00016-1.40255h-3.92544V77.49981h3.97422V70.14427h7.29684v7.30778h6.27764v2.63713h-5.93265c-.13679.17988-.22219.23976-.22221.29967-.00143,4.86465-.06377,9.73065.03291,14.59349.0616,3.09808,1.36893,4.09611,4.46063,3.741C194.08094,98.65521,194.67583,98.60472,195.33688,98.53948Z"/>
      <path class="bcde9ce4-c860-4453-9c08-a5cb351a0dc2" d="M220.10472,20.43158c-.09625-1.77549-.09508-1.75346,1.56369-1.841,2.669-.14093,5.33883-.28232,8.00308-.49021,1.01343-.07908,1.49576.151,1.364,1.27076a22.83568,22.83568,0,0,0-.01742,2.51336c.894-.85378,1.621-1.62446,2.42727-2.30088a6.74608,6.74608,0,0,1,4.70078-1.75848,4.39879,4.39879,0,0,1,4.29,3.48658c.5727,2.37494-.32715,5.03779-2.084,5.89967a4.02332,4.02332,0,0,1-4.10425-.3356c-1.42092-.904-1.49058-2.34709-1.36689-3.82566a10.1631,10.1631,0,0,1,.19514-1.04512,4.11963,4.11963,0,0,0-4.05791,3.78391q-.00072,5.445-.00013,10.89009c0,3.231.296,3.58516,3.456,4.12637.23445.04015.47161.06445.76371.10366V42.6941h-14.796V41.01381c.06426-.04472.12047-.11473.18613-.12509,2.82155-.445,3.11113-.779,3.11176-3.61363q.00132-5.86386.00023-11.72771C223.74,22.08407,223.38823,21.58316,220.10472,20.43158Z"/>
      <path class="b381fb53-aa76-4241-96f3-1b6c43315158" d="M133.91231,20.46718v-1.754c1.17064-.06985,2.31289-.13729,3.455-.20629,2.14954-.12987,4.30287-.2175,6.44689-.409,1.0955-.09783,1.46169.21739,1.45062,1.3599-.05411,5.58356-.02449,11.16792-.02449,16.752,0,3.59292,0,3.59292,3.295,4.78237-.0005.54676-.0005,1.09307-.0005,1.69769H134.57656v-1.675c.05586-.04126.11086-.11513.17554-.12489,2.77985-.41927,3.11969-.81207,3.11972-3.61926q.00009-6.1026,0-12.2052c0-2.91449-.543-3.63078-3.32315-4.39067C134.357,20.62246,134.1703,20.55193,133.91231,20.46718Z"/>
      <path class="bc30447c-d403-479d-b025-7317e934952e" d="M251.67559,79.49857V77.69851c1.78928-.11063,3.56044-.22049,5.33166-.32955,1.59068-.09794,3.18573-.15169,4.7705-.309.92839-.09215,1.16025.24752,1.15557,1.1261-.03054,5.73982-.01572,11.47989-.0157,17.21987,0,3.29139.238,3.61358,3.392,4.5373v1.69439H252.26684V99.89794c.21951-.03976.37319-.07684.5291-.09447,2.24992-.25446,2.82221-.84748,2.83734-3.13806.02659-4.02579.00761-8.05188.00761-12.07784,0-.3986.01154-.79765-.00289-1.19575a3.33808,3.33808,0,0,0-2.82066-3.61075C252.47718,79.6819,252.12912,79.6099,251.67559,79.49857Z"/>
      <path class="f00721d5-42eb-4783-be12-6cad8be59024" d="M145.35122,9.36587a4.47424,4.47424,0,0,1-4.52478,4.43947,4.53416,4.53416,0,0,1,.20208-9.06457A4.43968,4.43968,0,0,1,145.35122,9.36587Z"/>
      <path class="f00721d5-42eb-4783-be12-6cad8be59024" d="M254.2409,68.27911a4.43374,4.43374,0,1,1,8.86589-.06218,4.47953,4.47953,0,0,1-4.4113,4.55086A4.42058,4.42058,0,0,1,254.2409,68.27911Z"/>
    </g>
  </g>
</svg>
