<?xml version="1.0" encoding="utf-8"?>
<!-- Generator: Adobe Illustrator 25.0.0, SVG Export Plug-In . SVG Version: 6.00 Build 0)  -->
<svg version="1.1" id="Layer_1" xmlns="http://www.w3.org/2000/svg" xmlns:xlink="http://www.w3.org/1999/xlink" x="0px" y="0px"
	 viewBox="0 0 25 25" style="enable-background:new 0 0 25 25;" xml:space="preserve">
<g id="a9575e99-b17d-47c0-a648-a542c05ed58c">
	<g id="bc8c674b-3ccb-454f-97e9-b668e132a92c">
		<path d="M14.9,12.5l9.6-9.6c0.7-0.7,0.7-1.7,0-2.4c0,0,0,0,0,0l0,0c-0.7-0.7-1.7-0.7-2.4,0l-9.6,9.6L2.9,0.5
			c-0.7-0.7-1.7-0.7-2.4,0l0,0c-0.7,0.7-0.7,1.7,0,2.4c0,0,0,0,0,0l9.6,9.6l-9.6,9.6c-0.7,0.7-0.7,1.7,0,2.4c0.7,0.7,1.7,0.7,2.4,0
			l9.6-9.6l9.6,9.6c0.7,0.7,1.7,0.7,2.4,0s0.7-1.7,0-2.4L14.9,12.5z"/>
	</g>
</g>
</svg>
