<svg xmlns="http://www.w3.org/2000/svg" viewBox="0 0 50 50">
  <g id="a9575e99-b17d-47c0-a648-a542c05ed58c" data-name="Layer 2">
    <g id="bc8c674b-3ccb-454f-97e9-b668e132a92c" data-name="Layer 1">
      <path d="M29.80112,25,49.00565,5.79548a3.39489,3.39489,0,0,0,0-4.80112v0a3.395,3.395,0,0,0-4.80112,0L25,20.19886,5.79547.99433a3.395,3.395,0,0,0-4.80112,0v0a3.39489,3.39489,0,0,0,0,4.80112L20.19888,25,.99435,44.20453a3.3949,3.3949,0,1,0,4.80112,4.80112L25,29.80112,44.20453,49.00565a3.3949,3.3949,0,1,0,4.80112-4.80112Z"/>
    </g>
  </g>
</svg>
