<svg xmlns="http://www.w3.org/2000/svg" viewBox="0 0 1078.92734 888.85032">
  <defs>
    <style>
      .a56180b8-94a0-42a4-9012-3720582750e1 {
        fill: #146232;
      }

      .a3ecc054-4a0a-4550-b0f9-c4fe79af0bae, .a7fbf46f-9d2a-4831-bc69-626096c0f644, .a851c13a-e1f3-4c6b-96a3-88231ec078fe, .b2aa7465-8603-4d90-b045-19f0a35e2107, .b38e36a6-f590-4336-af7b-343679493694, .e8942253-cc07-45f1-9c0b-c3b2a48f9a49, .fe0318ac-974e-4144-b2d7-457f5acf5fa5 {
        fill: none;
        stroke: #146232;
        stroke-linecap: square;
        stroke-linejoin: round;
      }

      .a3ecc054-4a0a-4550-b0f9-c4fe79af0bae, .a7fbf46f-9d2a-4831-bc69-626096c0f644, .a851c13a-e1f3-4c6b-96a3-88231ec078fe, .b2aa7465-8603-4d90-b045-19f0a35e2107, .e8942253-cc07-45f1-9c0b-c3b2a48f9a49, .fe0318ac-974e-4144-b2d7-457f5acf5fa5 {
        stroke-width: 15px;
      }

      .a851c13a-e1f3-4c6b-96a3-88231ec078fe {
        stroke-dasharray: 70 70;
      }

      .fe0318ac-974e-4144-b2d7-457f5acf5fa5 {
        stroke-dasharray: 75.47168 75.47168;
      }

      .a3ecc054-4a0a-4550-b0f9-c4fe79af0bae {
        stroke-dasharray: 71.08009 71.08009;
      }

      .e8942253-cc07-45f1-9c0b-c3b2a48f9a49 {
        stroke-dasharray: 84.33436 84.33436;
      }

      .b2aa7465-8603-4d90-b045-19f0a35e2107 {
        stroke-dasharray: 74.47461 74.47461;
      }

      .b38e36a6-f590-4336-af7b-343679493694 {
        stroke-width: 10px;
      }
    </style>
  </defs>
  <g id="b0d158c5-7000-47ec-acfc-8ce9c1f7a57e" data-name="Layer 2">
    <g id="ab9ddc71-85ec-4e56-a142-6a19adcaad09" data-name="Layer 3">
      <g>
        <g>
          <path class="a56180b8-94a0-42a4-9012-3720582750e1" d="M25.96437,777.8963c-5.18435-2.993-12.71872.992-16.3394,3.83892C.99853,788.51807.27408,800.09557.06265,803.47558c-.49766,7.95332,2.14575,7.81149,1.73492,17.93333-.041,1.01029-.1063,1.92044-.1827,2.78089l19.14755-2.88717c2.41689-10.2435,9.11429-12.8651,10.17855-25.28718C31.20584,792.92386,32.18557,781.48784,25.96437,777.8963Z"/>
          <path class="a56180b8-94a0-42a4-9012-3720582750e1" d="M.77164,837.64671c.2891,6.55532.48561,9.93725,2.87577,11.6281,3.84987,2.72328,11.90005.005,15.49608-5.12969,3.46677-4.95039.34683-8.652.839-17.31112L1.00691,829.69522A50.5491,50.5491,0,0,0,.77164,837.64671Z"/>
        </g>
        <g>
          <path class="a56180b8-94a0-42a4-9012-3720582750e1" d="M41.25052,815.48071c5.28968-2.80264,12.67428,1.45347,16.18912,4.43011,8.37427,7.09183,8.67756,18.688,8.766,22.07347.20833,7.96615-2.42818,7.72836-2.38541,17.85844.00427,1.01111.03644,1.923.08152,2.78569l-19.03-3.581c-2.04308-10.32455-8.6408-13.18778-9.253-25.64034C35.46646,830.30789,34.90293,818.84383,41.25052,815.48071Z"/>
          <path class="a56180b8-94a0-42a4-9012-3720582750e1" d="M64.25549,876.10708c-.5271,6.54049-.84638,9.913-3.29639,11.51593-3.94628,2.58159-11.89237-.42738-15.29945-5.68937-3.28461-5.07309-.03222-8.65893-.20941-17.33018l18.85907,3.54883A50.54991,50.54991,0,0,1,64.25549,876.10708Z"/>
        </g>
        <path class="a851c13a-e1f3-4c6b-96a3-88231ec078fe" d="M40.39785,736s22-155.5,155.5-155.5c.31226.943,54-4,94,23"/>
        <g>
          <path class="a7fbf46f-9d2a-4831-bc69-626096c0f644" d="M327.89785,634.5q13.87281,9.33591,29.00342,19.59027"/>
          <path class="fe0318ac-974e-4144-b2d7-457f5acf5fa5" d="M419.57217,696.14923C581.29507,803.20471,799.18228,931.87872,915.39785,861c7.22217-4.40479,13.35206-8.15717,18.64405-11.46985"/>
          <path class="a7fbf46f-9d2a-4831-bc69-626096c0f644" d="M964.4523,827.31689c6.79541-6.59252,12.75683-14.26263,22.44555-26.81689"/>
        </g>
        <g>
          <path class="a7fbf46f-9d2a-4831-bc69-626096c0f644" d="M1023.89785,752.5a273.4784,273.4784,0,0,0,19.61988-28.96179"/>
          <path class="a3ecc054-4a0a-4550-b0f9-c4fe79af0bae" d="M1068.79873,657.485c8.34815-45.88-4.75293-80.672-17.40088-94.485C921.86123,421.53229,780.3732,500.04626,644.182,508.76929"/>
          <path class="a7fbf46f-9d2a-4831-bc69-626096c0f644" d="M608.66836,509.2663A255.12748,255.12748,0,0,1,573.89785,505.5"/>
        </g>
        <g>
          <path class="a7fbf46f-9d2a-4831-bc69-626096c0f644" d="M523.89785,497.5q-17.48217-3.16059-34.39672-6.48285"/>
          <path class="e8942253-cc07-45f1-9c0b-c3b2a48f9a49" d="M407.41494,471.75458C361.44107,458.6,322.20645,441.988,293.526,418.62991"/>
          <path class="a7fbf46f-9d2a-4831-bc69-626096c0f644" d="M264.89981,387.86282A125.79537,125.79537,0,0,1,249.453,356.576"/>
        </g>
        <g>
          <path class="a7fbf46f-9d2a-4831-bc69-626096c0f644" d="M775.89785,260.5q-17.01123-1.48325-34.77465-3.59985"/>
          <path class="b2aa7465-8603-4d90-b045-19f0a35e2107" d="M667.47866,246.673c-165.573-25.555-346.64111-65.36358-399.00976-3.97482"/>
          <path class="a7fbf46f-9d2a-4831-bc69-626096c0f644" d="M249.42569,274.6861A102.61083,102.61083,0,0,0,243.39785,309"/>
        </g>
        <path class="a851c13a-e1f3-4c6b-96a3-88231ec078fe" d="M354.39785,45c64,102,279,61,419,51s239.02615,55.76626,199,122c-21,34.75-71.18749,45.75-135.71874,44.875"/>
        <circle class="b38e36a6-f590-4336-af7b-343679493694" cx="339.39785" cy="26" r="21"/>
        <circle class="b38e36a6-f590-4336-af7b-343679493694" cx="805.39785" cy="261" r="21"/>
        <circle class="b38e36a6-f590-4336-af7b-343679493694" cx="243.39785" cy="333" r="21"/>
        <circle class="b38e36a6-f590-4336-af7b-343679493694" cx="547.39785" cy="502" r="21"/>
        <circle class="b38e36a6-f590-4336-af7b-343679493694" cx="1005.39785" cy="777" r="21"/>
        <circle class="b38e36a6-f590-4336-af7b-343679493694" cx="308.39785" cy="620" r="21"/>
      </g>
    </g>
  </g>
</svg>
